HIERARCHY
ROOT RootJoint
{
    OFFSET   0.000000   0.000000   0.000000
    CHANNELS 6 Xposition Yposition Zposition Xrotation Yrotation Zrotation
    JOINT pelvis_lowerback
    {
        OFFSET   0.000000   0.093605   0.000000
        CHANNELS 3 Xrotation Yrotation Zrotation
        JOINT lowerback_torso
        {
            OFFSET   0.000000   0.100000   0.000000
            CHANNELS 3 Xrotation Yrotation Zrotation
            JOINT torso_head
            {
                OFFSET   0.000000   0.282350   0.000000
                CHANNELS 3 Xrotation Yrotation Zrotation
                End Site
                {
                    OFFSET   0.000000   0.192650   0.000000
                }
            }
            JOINT rTorso_Clavicle
            {
                OFFSET  -0.001000   0.157500   0.000000
                CHANNELS 3 Xrotation Yrotation Zrotation
                JOINT rShoulder
                {
                    OFFSET  -0.117647   0.000000   0.000000
                    CHANNELS 3 Xrotation Yrotation Zrotation
                    JOINT rElbow
                    {
                        OFFSET  -0.245000   0.000000   0.000000
                        CHANNELS 3 Xrotation Yrotation Zrotation
                        JOINT rWrist
                        {
                            OFFSET  -0.240000   0.000000   0.000000
                            CHANNELS 3 Xrotation Yrotation Zrotation
                            End Site
                            {
                                OFFSET  -0.116353  -0.002500   0.000000
                            }
                        }
                    }
                }
            }
            JOINT lTorso_Clavicle
            {
                OFFSET   0.001000   0.157500   0.000000
                CHANNELS 3 Xrotation Yrotation Zrotation
                JOINT lShoulder
                {
                    OFFSET   0.117647   0.000000   0.000000
                    CHANNELS 3 Xrotation Yrotation Zrotation
                    JOINT lElbow
                    {
                        OFFSET   0.245000   0.000000   0.000000
                        CHANNELS 3 Xrotation Yrotation Zrotation
                        JOINT lWrist
                        {
                            OFFSET   0.240000   0.000000   0.000000
                            CHANNELS 3 Xrotation Yrotation Zrotation
                            End Site
                            {
                                OFFSET   0.116353  -0.002500   0.000000
                            }
                        }
                    }
                }
            }
        }
    }
    JOINT rHip
    {
        OFFSET  -0.100000  -0.051395   0.000000
        CHANNELS 3 Xrotation Yrotation Zrotation
        JOINT rKnee
        {
            OFFSET   0.000000  -0.410000   0.000000
            CHANNELS 3 Xrotation Yrotation Zrotation
            JOINT rAnkle
            {
                OFFSET   0.000000  -0.390000   0.000000
                CHANNELS 3 Xrotation Yrotation Zrotation
                JOINT rToeJoint
                {
                    OFFSET   0.000000  -0.050000   0.130000
                    CHANNELS 3 Xrotation Yrotation Zrotation
                    End Site
                    {
                        OFFSET  -0.010000   0.002000   0.060000
                    }
                }
            }
        }
    }
    JOINT lHip
    {
        OFFSET   0.100000  -0.051395   0.000000
        CHANNELS 3 Xrotation Yrotation Zrotation
        JOINT lKnee
        {
            OFFSET   0.000000  -0.410000   0.000000
            CHANNELS 3 Xrotation Yrotation Zrotation
            JOINT lAnkle
            {
                OFFSET   0.000000  -0.390000   0.000000
                CHANNELS 3 Xrotation Yrotation Zrotation
                JOINT lToeJoint
                {
                    OFFSET   0.000000  -0.050000   0.130000
                    CHANNELS 3 Xrotation Yrotation Zrotation
                    End Site
                    {
                        OFFSET   0.010000   0.002000   0.060000
                    }
                }
            }
        }
    }
}
MOTION
Frames: 11
Frame Time:   0.008333
 -2.247358   0.913051   4.504020   8.459519   3.157434  -0.861298   5.805501   8.571970  -6.453986  -1.276000  -0.768707  -6.423933  -5.613225  -5.880035  -0.732360  -6.655326  31.033265  -4.154148 -28.676204  24.258583  16.449358  -0.539769  48.986492   0.431004   3.333461   1.082314 -17.670972  -2.403216 -24.638554  -2.378023   3.427296 -27.555899 -31.190964   0.003918 -60.262063  -0.007352   4.829536  -3.328259   9.140563  10.233993  -4.820056  -6.983087  17.792351  -0.000084   0.000054  10.076811  -1.304463  10.907328 -10.108471  -0.007855  -0.019102 -24.194137  -3.259158   4.114182   8.852012  -0.000451  -0.002482  11.750470   2.765185   3.541411  -7.580346  -0.000102   0.000105
 -2.246655   0.913660   4.507061   8.604414   3.440123  -1.094811   5.938913   8.647026  -6.491728  -1.086249  -0.568224  -6.492849  -5.804822  -6.057122  -0.743460  -6.409254  31.609433  -3.875525 -27.261350  25.062615  16.590259  -0.468318  47.510015   0.371514   3.391992   0.857375 -16.810677  -2.448774 -24.783506  -2.559089   3.168780 -27.753282 -31.341533   0.002373 -60.774220  -0.010069   4.760104  -3.384256   9.054761  10.041394  -5.050405  -6.737778  18.070521  -0.000017   0.000031  10.545643  -1.452272  11.059376  -9.070918  -0.007190  -0.017843 -24.002928  -3.480920   4.210312   8.571919  -0.000418  -0.002241  11.473211   2.574934   3.618934  -7.250287  -0.000105  -0.000153
 -2.245860   0.914208   4.510168   8.722371   3.746460  -1.325458   6.059530   8.710427  -6.511187  -0.893543  -0.377781  -6.523615  -5.991028  -6.222224  -0.747917  -6.159976  32.121899  -3.568939 -25.925152  25.805029  16.729931  -0.406479  46.153448   0.319685   3.492107   0.778199 -16.008733  -2.464419 -24.887070  -2.746997   2.941584 -27.920482 -31.502423   0.001122 -61.253486  -0.011976   4.691996  -3.463883   8.993210   9.852497  -5.274936  -6.501949  18.354899   0.000078   0.000071  10.985318  -1.589479  11.202749  -8.119583  -0.006415  -0.016271 -23.792798  -3.693521   4.291747   8.319390  -0.000406  -0.002086  11.156544   2.390650   3.676819  -6.885157  -0.000020  -0.000263
 -2.244993   0.914715   4.513263   8.822120   4.079195  -1.543712   6.177794   8.766616  -6.515343  -0.698366  -0.201858  -6.533396  -6.168648  -6.376467  -0.751025  -5.914253  32.584785  -3.261960 -24.664789  26.486894  16.855959  -0.353343  44.887065   0.275183   3.595818   0.726902 -15.238984  -2.463417 -24.968476  -2.924343   2.740052 -28.066095 -31.658555   0.000103 -61.696912  -0.013120   4.624006  -3.528216   8.924014   9.661206  -5.484252  -6.282733  18.622968   0.000194   0.000187  11.396274  -1.716583  11.337596  -7.247578  -0.005551  -0.014402 -23.579924  -3.892980   4.347376   8.088472  -0.000412  -0.002001  10.844428   2.213427   3.723338  -6.533694   0.000109  -0.000227
 -2.244074   0.915189   4.516315   8.907095   4.427883  -1.748104   6.296853   8.819333  -6.506998  -0.503070  -0.037961  -6.527367  -6.335664  -6.520253  -0.753371  -5.677197  33.005478  -2.963326 -23.478579  27.115684  16.965738  -0.307521  43.703591   0.237001   3.695057   0.677139 -14.497885  -2.453598 -25.033251  -3.087250   2.558957 -28.193267 -31.804937  -0.000745 -62.107208  -0.013678   4.555863  -3.571709   8.850174   9.462574  -5.677065  -6.082288  18.869616   0.000309   0.000332  11.780013  -1.834344  11.464266  -6.448817  -0.004669  -0.012443 -23.366952  -4.086922   4.381962   7.875664  -0.000419  -0.001935  10.544972   2.036543   3.763252  -6.205448   0.000236  -0.000157
 -2.243117   0.915635   4.519309   8.978820   4.783783  -1.938301   6.416800   8.870273  -6.488487  -0.309918   0.116060  -6.508621  -6.491475  -6.654226  -0.754887  -5.451299  33.389656  -2.676720 -22.363934  27.697713  17.059545  -0.267848  42.598125   0.204205   3.789701   0.627465 -13.786651  -2.438988 -25.084407  -3.235109   2.394953 -28.304200 -31.939944  -0.001448 -62.487044  -0.013795   4.487887  -3.595899   8.777349   9.255094  -5.854184  -5.901203  19.093839   0.000409   0.000473  12.138179  -1.943535  11.583157  -5.717446  -0.003824  -0.010539 -23.154136  -4.278002   4.400035   7.679353  -0.000423  -0.001864  10.259556   1.858294   3.797720  -5.902374   0.000343  -0.000096
 -2.242137   0.916062   4.522311   9.050073   5.175053  -2.122065   6.519968   8.909541  -6.455072  -0.123538   0.252083  -6.477169  -6.635858  -6.779530  -0.755464  -5.234750  33.735297  -2.400726 -21.315765  28.234114  17.140261  -0.233365  41.565679   0.175974   3.880289   0.578578 -13.104130  -2.418927 -25.125345  -3.371844   2.246681 -28.402710 -32.066777  -0.002088 -62.839450  -0.013668   4.421125  -3.606858   8.700052   9.092811  -6.011042  -5.720389  19.391189   0.000602   0.000802  12.489367  -2.029603  11.695046  -4.894477  -0.002849  -0.008706 -22.953152  -4.460777   4.396172   7.495371  -0.000433  -0.001849   9.993018   1.686220   3.825348  -5.625608   0.000451   0.000053
 -2.241157   0.916363   4.525526   9.144445   5.569713  -2.358234   6.556003   8.940544  -6.405525   0.003768   0.378705  -6.385526  -6.723127  -6.816817  -0.706770  -5.078684  33.888667  -2.038211 -20.463292  28.661062  17.367628  -0.196488  40.942502   0.146205   3.993816   0.547916 -12.377176  -2.469636 -25.052163  -3.634252   2.187907 -28.370723 -32.299797  -0.003546 -63.247709  -0.015342   4.390944  -3.674687   8.651267   8.920674  -6.237578  -5.478526  19.694649   0.000674   0.000904  12.927725  -2.139414  11.779002  -4.255082  -0.002129  -0.007756 -22.791343  -4.727745   4.442019   7.410440  -0.000380  -0.001602   9.537558   1.520595   3.873593  -5.175699   0.000501   0.000082
 -2.240156   0.916627   4.528785   9.227342   5.957561  -2.580062   6.576057   8.969267  -6.363493   0.121248   0.494917  -6.290052  -6.806751  -6.848801  -0.656609  -4.933224  33.977920  -1.677931 -19.663289  29.036490  17.574110  -0.165520  40.371335   0.121525   4.117608   0.607907 -11.747538  -2.477608 -24.935611  -3.888418   2.160510 -28.309176 -32.530145  -0.004589 -63.620511  -0.016347   4.355835  -3.725109   8.622021   8.762412  -6.459897  -5.253894  19.992929   0.000733   0.000981  13.343976  -2.251993  11.854542  -3.614690  -0.001490  -0.006998 -22.621167  -4.985871   4.479493   7.344522  -0.000330  -0.001375   9.066095   1.356526   3.906841  -4.722877   0.000591   0.000106
 -2.239144   0.916882   4.532017   9.300722   6.336049  -2.786122   6.588627   8.995015  -6.323920   0.232422   0.600852  -6.198392  -6.887068  -6.878583  -0.610037  -4.797991  34.031270  -1.337011 -18.911534  29.369968  17.755569  -0.139704  39.834462   0.101233   4.234962   0.664568 -11.174354  -2.460889 -24.799990  -4.123620   2.153759 -28.232268 -32.747544  -0.005274 -63.959924  -0.016709   4.315365  -3.733124   8.584311   8.612658  -6.668464  -5.049328  20.278124   0.000785   0.001047  13.735565  -2.359687  11.924449  -2.998175  -0.000930  -0.006280 -22.448119  -5.232110   4.507220   7.289449  -0.000286  -0.001177   8.611338   1.195613   3.932133  -4.300693   0.000671   0.000122
 -2.238128   0.917138   4.535193   9.366154   6.704464  -2.979556   6.596103   9.017010  -6.283847   0.336602   0.696544  -6.109934  -6.962595  -6.906399  -0.566912  -4.673682  34.061030  -1.018166 -18.206637  29.670234  17.914332  -0.118122  39.329943   0.084517   4.343699   0.704061 -10.643461  -2.430900 -24.657079  -4.339872   2.159276 -28.148096 -32.950230  -0.005693 -64.270804  -0.016590   4.271383  -3.707162   8.538884   8.469595  -6.862831  -4.861320  20.547019   0.000826   0.001097  14.103120  -2.460865  11.989678  -2.408700  -0.000448  -0.005588 -22.275575  -5.462461   4.527508   7.243389  -0.000248  -0.001007   8.181070   1.043362   3.951817  -3.915262   0.000733   0.000163
